<svg width="50" height="35" viewBox="0 0 50 35" fill="none" xmlns="http://www.w3.org/2000/svg">
<path d="M0.15625 4.43437C0.471307 3.17462 1.2458 2.04983 2.35288 1.24421C3.45996 0.4386 4.83401 -8.69605e-05 6.25 1.29299e-08H43.75C45.166 -8.69605e-05 46.54 0.4386 47.6471 1.24421C48.7542 2.04983 49.5287 3.17462 49.8438 4.43437L25 18.2907L0.15625 4.43437ZM0 7.691V27.9494L18.1344 17.8031L0 7.691ZM21.1281 19.477L0.596875 30.9608C1.10415 31.9368 1.90477 32.7614 2.90557 33.3384C3.90636 33.9155 5.06617 34.2213 6.25 34.2202H43.75C44.9336 34.2205 46.093 33.914 47.0932 33.3365C48.0935 32.7589 48.8934 31.9341 49.4 30.9579L28.8687 19.4742L25 21.6329L21.1281 19.4742V19.477ZM31.8656 17.8059L50 27.9494V7.691L31.8656 17.8031V17.8059Z" fill="#0C9AC7"/>
</svg>
