<svg width="56" height="44" viewBox="0 0 56 44" fill="none" xmlns="http://www.w3.org/2000/svg">
<path d="M28 0C12.53 0 0 10.0647 0 22.4909C0 32.4431 8.015 40.8491 19.145 43.8291C20.545 44.0259 21.07 43.3512 21.07 42.7608C21.07 42.2267 21.035 40.4555 21.035 38.5719C14 39.6121 12.18 37.1943 11.62 35.9292C11.305 35.2826 9.94 33.2865 8.75 32.7524C7.77 32.3307 6.37 31.2905 8.715 31.2623C10.92 31.2342 12.495 32.8929 13.02 33.5677C15.54 36.9694 19.565 36.0135 21.175 35.4232C21.42 33.9613 22.155 32.9773 22.96 32.415C16.73 31.8527 10.22 29.9129 10.22 21.3101C10.22 18.8642 11.305 16.8401 13.09 15.2657C12.81 14.7034 11.83 12.3981 13.37 9.30561C13.37 9.30561 15.715 8.71522 21.07 11.6109C23.31 11.1049 25.69 10.8519 28.07 10.8519C30.45 10.8519 32.83 11.1049 35.07 11.6109C40.425 8.68711 42.77 9.30561 42.77 9.30561C44.31 12.3981 43.33 14.7034 43.05 15.2657C44.835 16.8401 45.92 18.8361 45.92 21.3101C45.92 29.941 39.375 31.8527 33.145 32.415C34.16 33.1178 35.035 34.4673 35.035 36.5758C35.035 39.584 35 42.0017 35 42.7608C35 43.3512 35.525 44.054 36.925 43.8291C42.4838 42.3222 47.3142 39.4528 50.7361 35.6249C54.158 31.797 55.999 27.2034 56 22.4909C56 10.0647 43.47 0 28 0Z" fill="#0C9AC7"/>
</svg>
