<svg width="76" height="100" viewBox="0 0 76 100" fill="none" xmlns="http://www.w3.org/2000/svg">
<path d="M38 100C38 100 75.5 64.4625 75.5 37.5C75.5 27.5544 71.5491 18.0161 64.5165 10.9835C57.4839 3.95088 47.9456 0 38 0C28.0544 0 18.5161 3.95088 11.4835 10.9835C4.45088 18.0161 0.5 27.5544 0.5 37.5C0.5 64.4625 38 100 38 100ZM38 56.25C33.0272 56.25 28.2581 54.2746 24.7417 50.7583C21.2254 47.2419 19.25 42.4728 19.25 37.5C19.25 32.5272 21.2254 27.7581 24.7417 24.2417C28.2581 20.7254 33.0272 18.75 38 18.75C42.9728 18.75 47.7419 20.7254 51.2583 24.2417C54.7746 27.7581 56.75 32.5272 56.75 37.5C56.75 42.4728 54.7746 47.2419 51.2583 50.7583C47.7419 54.2746 42.9728 56.25 38 56.25Z" fill="#0C9AC7"/>
</svg>
