<svg width="50" height="42" viewBox="0 0 50 42" fill="none" xmlns="http://www.w3.org/2000/svg">
<path d="M0 2.9538C0 1.32225 1.64375 0 3.67187 0H46.3281C48.3563 0 50 1.32225 50 2.9538V38.286C50 39.9175 48.3563 41.2398 46.3281 41.2398H3.67187C1.64375 41.2398 0 39.9175 0 38.286V2.9538ZM15.4469 34.5228V15.9005H7.94375V34.5228H15.4469ZM11.6969 13.3565C14.3125 13.3565 15.9406 11.9286 15.9406 10.1398C15.8937 8.31239 14.3156 6.92313 11.7469 6.92313C9.17812 6.92313 7.5 8.31497 7.5 10.1398C7.5 11.9286 9.12813 13.3565 11.6469 13.3565H11.6969ZM27.0344 34.5228V24.1227C27.0344 23.566 27.0844 23.0092 27.2844 22.6123C27.825 21.5014 29.0594 20.3492 31.1344 20.3492C33.85 20.3492 34.9344 22.0555 34.9344 24.5609V34.5228H42.4375V23.8417C42.4375 18.1197 38.7375 15.4598 33.8 15.4598C29.8187 15.4598 28.0344 17.264 27.0344 18.5347V18.5991H26.9844C27.001 18.5776 27.0176 18.5561 27.0344 18.5347V15.9005H19.5344C19.6281 17.648 19.5344 34.5228 19.5344 34.5228H27.0344Z" fill="#0C9AC7"/>
</svg>
